<svg width="44" height="46" viewBox="0 0 44 46" fill="none" xmlns="http://www.w3.org/2000/svg">
<rect width="44" height="46" rx="22" fill="#1D5C9B" fill-opacity="0.19"/>
<path d="M26.745 12.245C27.1379 11.8428 27.6068 11.5226 28.1244 11.3029C28.6419 11.0832 29.198 10.9684 29.7603 10.9651C30.3225 10.9618 30.8799 11.0702 31.4 11.2838C31.9201 11.4975 32.3926 11.8122 32.7902 12.2098C33.1878 12.6074 33.5025 13.08 33.7162 13.6001C33.9299 14.1202 34.0382 14.6775 34.0349 15.2398C34.0317 15.802 33.9168 16.3581 33.6971 16.8757C33.4774 17.3932 33.1572 17.8621 32.755 18.255L25.364 25.647C25.0184 25.9925 24.5869 26.2397 24.114 26.363L17.94 27.976C17.8133 28.0093 17.68 28.0089 17.5535 27.9746C17.427 27.9404 17.3117 27.8736 17.219 27.781C17.1264 27.6883 17.0596 27.573 17.0254 27.4465C16.9912 27.32 16.9907 27.1868 17.024 27.06L18.637 20.886C18.7604 20.4131 19.0075 19.9817 19.353 19.636L26.745 12.245ZM22 13.5C22.634 13.5002 23.2664 13.5632 23.888 13.688L25.125 12.45C24.135 12.157 23.085 12 22 12C15.925 12 11 16.925 11 23C11 29.075 15.925 34 22 34C28.075 34 33 29.075 33 23C33 21.914 32.843 20.866 32.55 19.875L31.312 21.112C31.7015 23.0328 31.4874 25.027 30.699 26.8214C29.9107 28.6157 28.5867 30.1223 26.9085 31.1346C25.2303 32.1469 23.2801 32.6154 21.3252 32.4759C19.3703 32.3364 17.5064 31.5957 15.989 30.3553C14.4716 29.1149 13.375 27.4356 12.8494 25.5475C12.3239 23.6594 12.3952 21.6549 13.0535 19.8089C13.7118 17.963 14.925 16.3657 16.5266 15.2363C18.1283 14.1068 20.0401 13.5003 22 13.5Z" fill="#1D5C9B"/>
</svg>
